<svg width="382" height="499" fill="none" xmlns="http://www.w3.org/2000/svg"><path fill-rule="evenodd" clip-rule="evenodd" d="M182.174 498.8c-17.6-1.2-32.8-2.4-48.4-11.8-11.8-7.1-22-16.6-32-26.1-19.2-18.4-38.6-38.5-46.2-64.1-3.617-11.981-4.455-24.537-5.294-37.108-.646-9.673-1.292-19.356-3.206-28.792-.3-1.4-.7-2.9-1.7-3.8-2.739-2.454-6.324-3.182-9.92-3.912-2.706-.549-5.418-1.1-7.78-2.388-5.2-2.8-8.7-7.9-11.8-12.7-8.4-13.2-15.8-27.4-15.6-43.4.066-4.765.531-9.497.995-14.215.948-9.639 1.89-19.217-.595-28.885-.5-1.9-1-4-.4-5.9.7-2.3 2.9-3.9 5.2-4.6 3.1-.9 14.7-2.1 15.8 2.6-13.3-59.2-2.2-120.6 41.6-164.9 3.9-4 8.1-7.8 12.5-11.3 4.3-3.5 8.9-6.8 13.6-9.8 4.7-3 9.5-5.8 14.5-8.4 5-2.5 10.1-4.8 15.3-6.9 5.2-2 10.5-3.8 15.9-5.4 5.4-1.5 10.8-2.8 16.3-3.9 5.5-1 11.1-1.8 16.6-2.3 5.6-.5 11.2-.8 16.8-.8 5.8 0 11.5.3 17.3.7 4 .3 8 .6 12.1 1 5 .5 9.9 1.1 14.8 1.8 5.2.7 10.3 1.6 15.4 2.7 4.4 1 8.8 2.1 13.1 3.6 22.5 8.1 43.2 21 60.2 37.9l1 1c43.8 44.3 54.9 105.7 41.6 164.9 1.1-4.7 12.6-3.5 15.8-2.6 2.3.7 4.5 2.3 5.2 4.6.6 1.9.1 4-.4 5.9-2.417 9.67-1.498 19.25-.572 28.892.452 4.715.906 9.445.972 14.208.2 16-7.2 30.2-15.6 43.4-3.1 4.8-6.6 9.9-11.8 12.7-2.319 1.223-4.994 1.77-7.664 2.316-3.663.75-7.318 1.497-10.036 3.984-1.1 1-1.4 2.4-1.7 3.8-1.976 9.531-2.622 19.313-3.266 29.084-.823 12.473-1.645 24.928-5.234 36.816-7.7 25.5-27 45.6-46.2 64.1-10 9.5-20.2 19-32 26.1-15.6 9.4-30.8 10.6-48.4 11.8h-16.8v.1zm15.7-41.3c18 0 35.6-7.6 50.2-18 6.8-4.8 13-10.3 18.5-16.5l.382-.432.062-.071c5.663-6.422 9.54-10.819 5.056-19.397-3.4-6.7-8.4-12.1-14.1-17-4.63-3.931-11.777-6.107-17.977-7.994-.898-.273-1.775-.54-2.623-.806-15.4-4.9-31.6-7.2-47.8-7-14 .2-28 2.4-41.6 5.7-7.4 1.8-14.7 3.9-21.3 7.6-8.2 4.5-13.6 11.2-17.8 19.4-4.419 8.643-.543 13.042 5.186 19.543l.314.357c5.5 6.2 11.7 11.7 18.5 16.5 14.7 10.4 32.3 18 50.2 18h14.8v.1zm33.7-101.2c-6.9-2.4-14-3.8-21.3-4.6-7.1-.8-14.2-1-21.2-.8-13.8.2-27.9 1.3-41 5.9-13 4.6-25.9 11.7-37.3 19.4-1.238.811-2.466 1.645-3.696 2.479-4.531 3.075-9.07 6.155-14.104 8.121-1.6.6-3.2 1.1-4.8.9-7.7-.7-14.1-14.8-16.7-20.9-2.642-6.286-4.52-12.827-6.398-19.367a428.893 428.893 0 0 0-2.302-7.833c-1.87-5.933-4.062-11.762-6.253-17.585-3.902-10.373-7.797-20.727-9.847-31.615-3.1-16.5-1.9-33.4 1-49.9 2.3-13.2 5.6-26.3 9.9-39 1.267-3.8 2.829-7.536 4.391-11.274 3.25-7.773 6.502-15.553 7.11-23.926.183-2.594.282-5.22.382-7.856.335-8.845.673-17.8 4.217-26.044 6.7-15.7 25.2-25.2 41.8-21.5 1.2.2 2.4.5 3.5.9 7.017 2.169 12.813 6.25 18.634 10.349 3.305 2.327 6.617 4.659 10.166 6.651 9.1 5.1 19.2 8.5 29.5 10.2 20.6 3.4 42.6-.2 59.8-12.4.832-.592 1.664-1.188 2.497-1.786 8.183-5.869 16.502-11.836 26.303-14.014 16.6-3.6 35.1 5.9 41.8 21.5 3.547 8.251 3.884 17.156 4.219 26.028.099 2.633.198 5.263.381 7.872.618 8.513 3.923 16.413 7.228 24.315 1.509 3.609 3.018 7.217 4.272 10.885 4.3 12.7 7.6 25.8 9.9 39 2.9 16.5 4.1 33.5 1 49.9-2.049 10.888-5.944 21.242-9.846 31.615-2.191 5.823-4.384 11.652-6.254 17.585-.8 2.6-1.551 5.216-2.302 7.833-1.877 6.54-3.755 13.081-6.398 19.367-2.6 6-9 20.1-16.7 20.9-1.7.2-3.3-.3-4.8-.9-5.358-2.093-10.156-5.378-14.979-8.68-.938-.642-1.877-1.285-2.821-1.92-12-8-25.3-15-39-19.8z" fill="#000"/><path d="M189.274 451c.4 0 .7 0 1.1-.2.8-.3 1.4-1 2-1.6 7.8-8.5 14.3-18 19.3-28.4.9-1.8 2.1-4.3 0-5.8-1-.8-2.6-.7-3.8-.8-5.7-.5-11.4-.2-17.1-.2-6.8 0-13.8-.4-20.6.2-1.3.1-3.2.1-4.1 1.3-1.2 1.5 0 3.8.7 5.3 2.7 5.5 5.8 10.8 9.2 15.8 1.8 2.5 3.6 5 5.5 7.4 1 1.2 2 2.4 3 3.5.9 1 1.7 2.2 2.8 2.9.1.1.2.1.3.2.5.3 1.1.4 1.7.4zM155.274 259.3c-.6.1-3.6-3.2-4.1-3.7-5-4.7-9.7-8.4-16.4-10.4-5.9-1.8-12.1-2.2-18.3-2.2-9.4 0-20.6 1.3-27.5 8.4-1 1-2 2.5-1.4 3.8.5 1.3 2.1 1.7 3.4 1.9 20.9 3.8 43.3 7 64.3 2.2zM120.974 234c5.2.3 10.3 1.1 15.2 3 5 1.9 9.8 4.5 15 6.1 2.8.8 6.8-.3 4.8-4-.8-1.5-2.3-2.3-3.8-3.1-9.7-5.2-20.2-9.1-30.9-11.6-5.4-1.2-10.8-2.1-16.3-2.7-2.7-.3-5.5-.5-8.3-.5-4.1-.1-9.8-1.4-12.5 2.8-1.3 2.1-1.3 4.7-.4 7 .5 1.1 1.2 2.1 2.2 2.7 1.2.7 2.7.8 4.1.9 10.2.3 20.7-1.2 30.9-.6zM225.874 259.3c.6.1 3.6-3.2 4.1-3.7 5-4.7 9.7-8.4 16.4-10.4 5.9-1.8 12.1-2.2 18.3-2.2 9.4 0 20.6 1.3 27.5 8.4 1 1 2 2.5 1.4 3.8-.5 1.3-2.1 1.7-3.4 1.9-20.9 3.8-43.2 7-64.3 2.2zM260.174 234c-5.2.3-10.3 1.1-15.2 3-5 1.9-9.8 4.5-15 6.1-2.8.8-6.8-.3-4.8-4 .8-1.5 2.3-2.3 3.8-3.1 9.7-5.2 20.2-9.1 30.9-11.6 5.4-1.2 10.8-2.1 16.3-2.7 2.7-.3 5.5-.5 8.3-.5 4.1-.1 9.8-1.4 12.5 2.8 1.3 2.1 1.3 4.7.4 7-.5 1.1-1.2 2.1-2.2 2.7-1.2.7-2.7.8-4.1.9-10.2.3-20.7-1.2-30.9-.6z" fill="#000"/><path d="M145.774 322.4c-.6 3 1.5 6 4.1 7.6 5.4 3.5 12.2 3.8 18.3 4.9 4.1.7 8.2 1.4 12.3 2.3 4.2 1 8.4 2 12.8 1.9.9 0 1.8-.1 2.6-.3 2.5-.4 4.9-1.1 7.3-1.7 3.2-.9 6.4-1.4 9.6-2 6.7-1.4 13.6-1.2 19.6-5 2.6-1.7 4.7-4.6 4.1-7.6" stroke="#000" stroke-width="4" stroke-miterlimit="10"/><path d="M146.274 394.5c28.6 3.6 57.3 3.6 85.9 0" stroke="#000" stroke-width="3" stroke-miterlimit="10"/></svg>