<svg viewBox="0 0 168 59" fill="none" xmlns="http://www.w3.org/2000/svg"><path d="M.76 30.819h5.61V13.818c0-1.746-.304-4.573-.304-4.573h.087s1.392 2.827 2.566 4.573l11.699 17h5.567V1.307h-5.567V18.35c0 1.745.305 4.572.305 4.572h-.087S19.2 20.095 18.07 18.35L6.37 1.306H.76v29.513zm30.919-14.965c0 8.688 6.61 15.463 15.96 15.463 9.35 0 15.961-6.775 15.961-15.463C63.6 7.416 56.99.807 47.64.807c-9.35 0-15.961 6.61-15.961 15.047zm5.784 0c0-5.736 4.262-10.142 10.176-10.142 5.915 0 10.177 4.406 10.177 10.143 0 5.985-4.262 10.558-10.177 10.558-5.914 0-10.176-4.573-10.176-10.559zm38.734 14.965h5.827L93.157 1.306H87.2l-6.871 19.246c-.565 1.704-1.174 4.323-1.174 4.323h-.087s-.61-2.62-1.174-4.323L71.108 1.306h-6.045l11.133 29.513zm20.929 0h5.61V1.306h-5.61v29.513zm11.298-14.881c0 8.687 6.262 15.38 15.96 15.38 5.523 0 9.481-2.204 12.134-4.78l-2.957-3.866c-2.349 2.203-5.654 3.74-8.959 3.74-6.698 0-10.394-5.029-10.394-10.557 0-5.446 3.566-10.143 10.35-10.143 3.001 0 6.263 1.33 8.437 3.118l2.697-3.99c-3.001-2.786-7.35-4.033-11.395-4.033-9.306 0-15.873 6.568-15.873 15.13zm32.913 14.881h5.611V18.432h14.134v12.387h5.566V1.306h-5.566v12.512h-14.134V1.306h-5.611v29.513z" fill="#fff"/><path d="M52.96 13.279h-.272c-.81 0-1.614-.003-2.424 0-.653.003-1.018.441-.685.817.16.177.419.243.72.243h2.656v1.403h-2.633c-.498 0-.863.223-.876.53-.013.3.356.53.867.53.787.004 1.57 0 2.357 0h.29c.004.067.013.118.013.172 0 .325-.01.652.004.977.005.132-.044.183-.253.18-.8-.01-1.601-.006-2.402-.003-.48 0-.77.16-.854.457-.07.255.21.54.587.58.125.015.25.018.378.018.77.003 1.544.003 2.313 0 .178 0 .222.035.213.156-.066.991-.653 1.814-1.73 2.481-1.498.929-3.25 1.157-5.185.806a5.707 5.707 0 01-2.424-1.064c-.854-.634-1.29-1.376-1.352-2.23-.009-.126.053-.15.222-.15a508 508 0 002.469.004c.249 0 .493-.015.676-.148.213-.153.302-.333.2-.538-.098-.195-.303-.318-.605-.354a2.656 2.656 0 00-.311-.015c-.81 0-1.615-.006-2.424.003-.205.003-.25-.042-.245-.171.014-.376.005-.752.005-1.142.093-.003.178-.012.267-.012.836 0 1.676.003 2.512-.003.596-.003.97-.334.805-.694-.102-.222-.418-.367-.827-.37-.832-.003-1.659 0-2.49 0h-.25v-1.397c.09-.003.174-.009.259-.009.845 0 1.69.003 2.534-.003.574-.006.943-.342.774-.694-.102-.213-.418-.363-.791-.363-.832-.003-1.66 0-2.49 0h-.281c.044-1.115.734-2.001 1.975-2.707 1.756-.992 4.247-1.03 5.954-.352 1.704.68 2.655 1.686 2.753 3.062zm-7.811 16.708h5.509v6.928h-5.509z" fill="#fff"/><path fill-rule="evenodd" clip-rule="evenodd" d="M.5 56.568a2.24 2.24 0 002.24 2.24h162.52a2.239 2.239 0 002.239-2.24V39.154a2.239 2.239 0 00-2.239-2.239H2.739A2.239 2.239 0 00.5 39.154v17.414zm78.523-3.353c-3.28 0-5.6-2.378-5.6-5.427 0-2.96 2.32-5.28 5.6-5.28 3.282 0 5.601 2.32 5.601 5.28 0 3.049-2.32 5.427-5.6 5.427zm0-8.986c-2.075 0-3.57 1.546-3.57 3.56 0 2.1 1.495 3.704 3.57 3.704 2.076 0 3.572-1.604 3.572-3.705 0-2.013-1.496-3.559-3.572-3.559zm-65.162 8.81h-3.693V42.683h3.693c3.342 0 5.525 1.896 5.525 5.164 0 3.267-2.183 5.192-5.525 5.192zm-1.724-8.737v7.118h1.617c2.198 0 3.602-1.24 3.602-3.573 0-2.305-1.435-3.545-3.602-3.545h-1.617zm17.845 8.737h-6.73V42.683h6.486v1.62H25.22v2.712h3.648v1.62H25.22v2.785h4.762v1.62zm3.775 0h6.73V51.42h-4.762v-2.786h3.648v-1.619h-3.648v-2.713h4.518v-1.619h-6.486v10.356zm12.474 0h-1.97V42.683h4.182c2.03 0 3.45 1.356 3.45 3.37 0 2.012-1.42 3.413-3.45 3.413h-2.212v3.573zm0-8.737v3.53h1.846c1.145 0 1.816-.7 1.816-1.78 0-1.064-.671-1.75-1.785-1.75H46.23zm14.496 8.737h1.968v-4.346h4.96v4.346h1.954V42.683h-1.954v4.39h-4.96v-4.39h-1.968v10.356zm27.595-3.72c0 2.32 1.755 3.895 4.38 3.895 2.61 0 4.349-1.575 4.349-3.894v-6.637h-1.969v6.622c0 1.4-.946 2.188-2.396 2.188s-2.396-.787-2.396-2.188v-6.622h-1.969v6.637zm15.986 3.895c-1.343 0-2.731-.48-3.708-1.414l1.068-1.415c.641.554 1.679 1.094 2.686 1.094.977 0 1.587-.482 1.587-1.182 0-.864-.972-1.27-2.063-1.726-1.397-.584-2.988-1.249-2.988-3.058 0-1.824 1.587-3.005 3.693-3.005 1.129 0 2.32.365 3.174 1.108l-.87 1.532c-.595-.51-1.526-.904-2.38-.904-.992 0-1.649.467-1.649 1.181 0 .834.948 1.214 2.023 1.645 1.406.563 3.029 1.213 3.029 3.081 0 1.678-1.282 3.063-3.602 3.063zm7.396-.175h6.731V51.42h-4.762v-2.786h3.648v-1.619h-3.648v-2.713h4.517v-1.619h-6.486v10.356zm19.082.175c-1.343 0-2.731-.48-3.708-1.414l1.068-1.415c.641.554 1.679 1.094 2.686 1.094.977 0 1.587-.482 1.587-1.182 0-.864-.972-1.27-2.063-1.726-1.397-.584-2.988-1.249-2.988-3.058 0-1.824 1.587-3.005 3.693-3.005 1.129 0 2.32.365 3.174 1.108l-.869 1.532c-.596-.51-1.527-.904-2.381-.904-.992 0-1.648.467-1.648 1.181 0 .834.948 1.214 2.022 1.645 1.406.563 3.029 1.213 3.029 3.081 0 1.678-1.282 3.063-3.602 3.063zm6.102-.175h2.014l.916-2.654h3.8l.931 2.654h2.015l-3.8-10.356h-2.076l-3.8 10.356zm3.418-4.186l.977-2.771c.183-.584.427-1.605.427-1.605h.031s.244 1.021.427 1.605l.962 2.771h-2.824zm10.598 4.186h-2.183l3.358-5.25-3.236-5.106h2.244l1.495 2.538c.336.598.672 1.27.672 1.27h.03s.306-.657.672-1.27l1.511-2.538h2.243l-3.25 5.105 3.372 5.252h-2.197l-1.694-2.787c-.351-.598-.672-1.225-.672-1.225h-.03s-.306.627-.657 1.225l-1.678 2.786z" fill="#fff"/></svg>