<svg viewBox="0 0 35 34" fill="none" xmlns="http://www.w3.org/2000/svg"><path d="M21.562 8.436h-8.935a4.062 4.062 0 00-4.054 4.059v9.025a4.062 4.062 0 004.054 4.06h8.935a4.062 4.062 0 004.054-4.06v-9.025a4.062 4.062 0 00-4.054-4.06zm-4.45 13.976c-3.031 0-5.496-2.442-5.496-5.443 0-3.002 2.465-5.443 5.495-5.443 3.03 0 5.497 2.441 5.497 5.443 0 3.001-2.466 5.443-5.497 5.443zm5.593-9.814a1.294 1.294 0 11.001-2.588 1.294 1.294 0 010 2.588z" fill="#6D6D6D"/><path d="M17.137 0C7.757 0 .154 7.611.154 17s7.604 17 16.983 17c9.378 0 16.982-7.611 16.982-17S26.515 0 17.137 0zm10.485 21.52c0 3.346-2.719 6.067-6.06 6.067h-8.935c-3.342 0-6.06-2.721-6.06-6.066v-9.026c0-3.345 2.719-6.067 6.06-6.067h8.934c3.342 0 6.061 2.722 6.061 6.067v9.026z" fill="#6D6D6D"/><path d="M17.111 13.53c-1.926 0-3.494 1.543-3.494 3.439 0 1.896 1.568 3.44 3.494 3.44 1.927 0 3.495-1.544 3.495-3.44 0-1.897-1.568-3.44-3.495-3.44z" fill="#6D6D6D"/></svg>