<svg viewBox="0 0 167 59" fill="none" xmlns="http://www.w3.org/2000/svg"><path fill-rule="evenodd" clip-rule="evenodd" d="M44.594 32.702c-8.05-1.143-13.533-7.781-13.533-16.079 0-8.87 6.641-15.816 16.035-15.816 9.393 0 16.034 6.947 16.034 15.816 0 8.114-5.243 14.641-13.002 15.995v4.19H165a2 2 0 012 2v18a2 2 0 01-2 2H2a2 2 0 01-2-2v-18a2 2 0 012-2h42.594v-4.106zm-7.722-16.079c0-6.03 4.282-10.66 10.224-10.66s10.223 4.63 10.223 10.66c0 6.292-4.282 11.098-10.224 11.098-5.941 0-10.223-4.806-10.223-11.098zM0 32.352h5.636v-17.87c0-1.835-.306-4.806-.306-4.806h.088s1.398 2.971 2.577 4.806l11.753 17.87h5.593V1.332h-5.593v17.913c0 1.835.306 4.806.306 4.806h-.087s-1.442-2.971-2.578-4.806L5.636 1.33H0v31.02zm81.64 0h-5.855L64.6 1.332h6.073l6.816 20.228c.567 1.792 1.18 4.544 1.18 4.544h.087s.611-2.752 1.18-4.544l6.902-20.229h5.986l-11.185 31.02zm15.17 0h5.637V1.332h-5.636v31.02zm27.385.524c-9.743 0-16.034-7.034-16.034-16.165 0-9 6.597-15.904 15.947-15.904 4.063 0 8.432 1.31 11.447 4.238l-2.709 4.194c-2.185-1.878-5.461-3.276-8.476-3.276-6.816 0-10.398 4.937-10.398 10.66 0 5.811 3.713 11.098 10.442 11.098 3.32 0 6.641-1.617 9-3.933l2.971 4.064c-2.665 2.709-6.641 5.024-12.19 5.024zm17.032-.524h5.636v-13.02h14.199v13.02h5.593V1.332h-5.593v13.15h-14.199V1.332h-5.636v31.02zm-98.998-19.02a5.1 5.1 0 019.681 0h-2.656v1.456h2.91c.002.048.003.097.003.146v1.602h-2.913v1.456h2.913v1.02c0 .247-.018.49-.052.728h-2.861v1.456h2.422a5.098 5.098 0 01-9.213 0h2.713V19.74h-3.152a5.144 5.144 0 01-.052-.728v-1.02h3.204v-1.456h-3.204v-1.602l.002-.146h3.202v-1.456H42.23zm11.368 40.475h-2.376l4.482-12.78h2.448l4.482 12.78h-2.376l-1.098-3.276h-4.482l-1.08 3.276zm2.808-8.586l-1.152 3.42h3.33l-1.134-3.42c-.216-.72-.504-1.98-.504-1.98h-.036s-.288 1.26-.504 1.98zm22.796 8.586h-7.848v-12.78h2.322V51.81H79.2v1.998zm8.822 0h7.938V51.81h-5.616v-3.438h4.302v-1.998h-4.302v-3.348h5.328v-1.998h-7.65v12.78zm18.51 0h-2.574l3.96-6.48-3.816-6.3h2.646l1.764 3.132c.396.738.792 1.566.792 1.566h.036s.36-.81.792-1.566l1.782-3.132h2.646l-3.834 6.3 3.978 6.48h-2.592l-1.998-3.438c-.414-.738-.792-1.512-.792-1.512h-.036s-.36.774-.774 1.512l-1.98 3.438z" fill="#262528"/></svg>