<svg width="96" height="96" viewBox="0 0 96 96" fill="none" xmlns="http://www.w3.org/2000/svg">
<path fill-rule="evenodd" clip-rule="evenodd" d="M47.6381 91.0354C71.7811 91.0354 91.2763 71.6932 91.2763 47.9273C91.2763 24.1613 71.7811 4.81909 47.6381 4.81909C23.4951 4.81909 4 24.1613 4 47.9273C4 71.6932 23.4951 91.0354 47.6381 91.0354ZM47.6381 95.0354C73.9479 95.0354 95.2763 73.9444 95.2763 47.9273C95.2763 21.9101 73.9479 0.819092 47.6381 0.819092C21.3283 0.819092 0 21.9101 0 47.9273C0 73.9444 21.3283 95.0354 47.6381 95.0354Z" fill="#1ABD00"/>
<path fill-rule="evenodd" clip-rule="evenodd" d="M44.8393 59.8535L27.4223 42.6303L24.5781 45.4429L45.1098 65.7462L71.3724 34.576L68.2822 32.0299L44.8393 59.8535Z" fill="#1ABD00"/>
</svg>
