<svg width="80" height="80" viewBox="0 0 80 80" fill="none" xmlns="http://www.w3.org/2000/svg">
<g opacity="0.5">
<path fill-rule="evenodd" clip-rule="evenodd" d="M45.4426 39.9999L37.371 31.9283L38.0781 31.2212L46.8568 39.9999L38.0781 48.7785L37.371 48.0714L45.4426 39.9999Z" fill="white"/>
<path fill-rule="evenodd" clip-rule="evenodd" d="M40 79C61.5391 79 79 61.5391 79 40C79 18.4609 61.5391 1 40 1C18.4609 0.999996 0.999997 18.4609 0.999993 40C0.999989 61.5391 18.4609 79 40 79ZM40 80C62.0914 80 80 62.0914 80 40C80 17.9086 62.0914 3.94226e-06 40 7.96827e-08C17.9086 -3.7829e-06 -3.13124e-06 17.9086 -6.99382e-06 40C-1.08564e-05 62.0914 17.9086 80 40 80Z" fill="white"/>
</g>
</svg>
