<svg viewBox="0 0 33 34" fill="none" xmlns="http://www.w3.org/2000/svg"><path d="M16.136 0C7.308 0 .152 7.611.152 17s7.156 17 15.984 17c8.827 0 15.983-7.611 15.983-17S24.963 0 16.136 0zm6.93 19.247c.127.166.426.488.899.968h.011l.011.011.011.012.022.024c1.043 1.03 1.749 1.899 2.119 2.607.022.038.046.088.072.147.025.06.051.163.077.313a.977.977 0 01-.005.4c-.03.118-.122.227-.277.325-.156.098-.374.147-.655.147l-2.839.048c-.177.04-.384.02-.62-.059a2.636 2.636 0 01-.577-.26l-.222-.142c-.223-.165-.481-.416-.777-.754a20.229 20.229 0 01-.76-.915 3.8 3.8 0 00-.676-.684c-.24-.185-.45-.246-.627-.183a.855.855 0 00-.089.042 1.507 1.507 0 00-.427.519c-.07.138-.133.342-.188.613-.056.271-.08.576-.072.915 0 .117-.014.226-.04.324a.82.82 0 01-.083.218l-.044.059c-.133.15-.329.236-.588.26h-1.275a4.739 4.739 0 01-1.62-.195 5.991 5.991 0 01-1.457-.626 13.052 13.052 0 01-1.143-.777 6.73 6.73 0 01-.781-.679l-.277-.283a7.287 7.287 0 01-.306-.354 26.27 26.27 0 01-.792-1.073c-.4-.559-.791-1.152-1.176-1.782a36.893 36.893 0 01-1.359-2.489 40.02 40.02 0 01-1.447-3.208.989.989 0 01-.067-.318c0-.086.011-.15.034-.189l.044-.07c.111-.15.322-.225.632-.225l3.039-.023a1.057 1.057 0 01.433.176l.055.036a.778.778 0 01.266.377c.148.394.318.8.51 1.222.192.42.344.74.455.96l.177.343c.215.472.422.88.621 1.227.2.346.38.615.538.808.16.192.313.344.46.454.149.11.274.165.378.165.103 0 .203-.02.3-.059a.204.204 0 00.055-.059 2.003 2.003 0 00.283-.814c.033-.228.068-.546.105-.955.037-.41.037-.9 0-1.474a5.863 5.863 0 00-.1-.862c-.052-.259-.103-.44-.155-.542l-.067-.142c-.184-.267-.499-.436-.942-.507-.097-.015-.078-.11.055-.283a1.51 1.51 0 01.422-.354c.391-.204 1.275-.298 2.65-.283.606.008 1.105.059 1.497.153.148.04.272.093.372.16.1.066.175.16.227.282.052.122.09.248.117.378.026.13.039.309.039.537 0 .228-.004.444-.011.648-.008.205-.017.482-.028.832-.01.35-.017.674-.017.973 0 .087-.003.252-.01.495a9.84 9.84 0 00-.006.566c.003.134.016.294.038.478.023.185.065.339.128.46a.762.762 0 00.25.29l.188.047c.067.015.163-.028.288-.13.126-.102.266-.238.422-.407a6.05 6.05 0 00.576-.79c.23-.357.48-.78.754-1.268.444-.818.84-1.703 1.187-2.654a.812.812 0 01.11-.207c.045-.06.086-.1.123-.124l.044-.036.055-.029a.86.86 0 01.366-.041l3.195-.024c.288-.039.524-.03.71.03.184.058.299.123.343.194l.067.118c.17.504-.385 1.659-1.664 3.468a87.86 87.86 0 01-.72 1.003c-.577.786-.91 1.301-.998 1.546-.126.321-.074.64.155.954z" fill="#6D6D6D"/></svg>