<svg viewBox="0 0 35 34" fill="none" xmlns="http://www.w3.org/2000/svg"><path d="M16.008 19.488l5.26-2.793-5.26-2.736v5.529z" fill="#6D6D6D"/><path d="M17.935 0C8.556 0 .953 7.611.953 17s7.603 17 16.982 17c9.38 0 16.983-7.611 16.983-17S27.314 0 17.935 0zm9.482 20.96c-.226 1.433-.918 2.212-2.375 2.377-1.627.184-5.287.269-6.913.269-1.683 0-5.087-.07-6.787-.212-1.46-.122-2.457-.939-2.657-2.392-.146-1.059-.24-2.317-.24-4.317 0-2.226.08-3.169.268-4.175.269-1.435.953-2.13 2.516-2.292 1.64-.17 3.19-.255 6.66-.255 1.695 0 5.351.088 7.04.24 1.475.134 2.306 1.037 2.488 2.477.127 1.005.24 2.444.24 3.992 0 2.716-.24 4.287-.24 4.287z" fill="#6D6D6D"/></svg>