<svg viewBox="0 0 604 81" fill="none" xmlns="http://www.w3.org/2000/svg"><path d="M2.38 1.125v37.688h48.63V1.124h2.494v78.75H51.01v-38.7H2.38v38.7H0V1.125h2.38zm135.977 66.15c7.406-7.5 11.108-16.425 11.108-26.775 0-10.35-3.702-19.275-11.108-26.775-7.406-7.5-16.399-11.25-26.979-11.25-10.353 0-19.308 3.75-26.865 11.25-7.406 7.575-11.109 16.5-11.109 26.775 0 10.275 3.703 19.2 11.11 26.775 7.556 7.5 16.511 11.25 26.864 11.25 10.58 0 19.573-3.75 26.979-11.25zm-55.43 1.8C74.915 60.9 70.91 51.375 70.91 40.5s4.005-20.4 12.015-28.575C90.71 3.975 100.194 0 111.378 0c11.336 0 20.895 3.975 28.679 11.925 7.935 8.1 11.902 17.625 11.902 28.575s-3.967 20.475-11.902 28.575C132.273 77.025 122.714 81 111.378 81c-11.184 0-20.668-3.975-28.452-11.925zM172.46 3.712v32.85h29.585c6.953 0 11.827-3.224 14.623-9.674a17.875 17.875 0 001.247-6.638c0-2.325-.416-4.613-1.247-6.863-2.796-6.45-7.67-9.675-14.623-9.675H172.46zm-2.494-2.474h32.079c4.157 0 7.671 1.05 10.542 3.15 2.872 2.024 4.988 4.725 6.348 8.1.907 2.4 1.36 4.95 1.36 7.65 0 2.774-.453 5.324-1.36 7.65-1.662 4.2-4.421 7.35-8.275 9.45 4.912 1.05 8.691 3.6 11.336 7.65 2.72 3.974 4.081 8.437 4.081 13.387 0 5.775-1.852 10.837-5.555 15.188-3.703 4.275-8.804 6.412-15.303 6.412h-35.253V1.237zm2.494 37.8v38.475h32.759c5.819 0 10.353-1.876 13.603-5.626 3.249-3.825 4.874-8.325 4.874-13.5 0-5.25-1.625-9.787-4.874-13.612-3.25-3.825-7.784-5.737-13.603-5.737H172.46zm72.028-37.913h2.494v73.8l51.463-73.8h2.267v78.75h-2.381V5.625l-51.803 74.25h-2.04V1.125zm125.265 0v78.75h-2.494V45.45c-4.61 2.175-9.635 3.412-15.076 3.712-5.365.226-10.391-.374-15.076-1.8-4.686-1.5-8.577-4.162-11.676-7.987-3.098-3.9-4.647-8.625-4.647-14.175V1.125h2.493V25.2c0 5.1 1.474 9.412 4.421 12.938 3.023 3.45 6.764 5.812 11.222 7.087 4.459 1.275 9.22 1.725 14.283 1.35 5.139-.375 9.824-1.575 14.056-3.6V1.125h2.494zm20.345 0h2.493v78.75h-2.493V1.125zm4.534 40.388v-2.026l40.807-38.362h3.401l-41.828 39.263 44.889 39.487h-3.968l-43.301-38.362zM516.28 67.275c7.406-7.5 11.109-16.425 11.109-26.775 0-10.35-3.703-19.275-11.109-26.775-7.406-7.5-16.399-11.25-26.978-11.25-10.353 0-19.308 3.75-26.865 11.25-7.406 7.575-11.109 16.5-11.109 26.775 0 10.275 3.703 19.2 11.109 26.775 7.557 7.5 16.512 11.25 26.865 11.25 10.579 0 19.572-3.75 26.978-11.25zm-55.43 1.8c-8.011-8.175-12.016-17.7-12.016-28.575s4.005-20.4 12.016-28.575C468.633 3.975 478.117 0 489.302 0c11.335 0 20.895 3.975 28.678 11.925 7.935 8.1 11.903 17.625 11.903 28.575s-3.968 20.475-11.903 28.575C510.197 77.025 500.637 81 489.302 81c-11.185 0-20.669-3.975-28.452-11.925zm89.533-65.363v32.85h29.586c6.952 0 11.826-3.224 14.623-9.674a17.874 17.874 0 001.246-6.638 19.67 19.67 0 00-1.246-6.863c-2.797-6.45-7.671-9.675-14.623-9.675h-29.586zm-2.494-2.474h32.08c4.156 0 7.67 1.05 10.542 3.15 2.871 2.024 4.987 4.725 6.348 8.1.906 2.4 1.36 4.95 1.36 7.65 0 2.774-.454 5.324-1.36 7.65-1.663 4.2-4.421 7.35-8.275 9.45 4.912 1.05 8.69 3.6 11.335 7.65C602.64 48.862 604 53.325 604 58.275c0 5.775-1.852 10.837-5.554 15.188-3.703 4.275-8.804 6.412-15.303 6.412h-35.254V1.237zm2.494 37.8v38.475h32.76c5.819 0 10.353-1.876 13.602-5.626 3.25-3.825 4.875-8.325 4.875-13.5 0-5.25-1.625-9.787-4.875-13.612-3.249-3.825-7.783-5.737-13.602-5.737h-32.76z" fill="#3D3D3D"/></svg>