<svg viewBox="0 0 659 99" fill="none" xmlns="http://www.w3.org/2000/svg"><path d="M33.13 3.629L14.41 51.71h37.328a10107.31 10107.31 0 01-9.304-24.04 10108.426 10108.426 0 00-9.303-24.042zm30.408 76.886L52.759 54.094H13.39L2.722 80.515H0L31.996 0h2.383L66.26 80.516h-2.723zm78.799.001L112.043 3.742 81.749 80.515h-2.836L110.909 0h2.382l31.883 80.516h-2.837zm20.539-38.444v36.062h41.867v2.382h-44.249V1.133h44.022v2.381h-41.64v36.062h40.733v2.495h-40.733zm60.018-40.938h2.497v79.382h-2.497V1.133zm4.539 40.711v-2.04l40.846-38.671h3.403l-41.867 39.577 44.931 39.805h-3.971l-43.342-38.67zm129.023-16.897h-2.723c-1.664-3.93-4.16-7.635-7.488-11.113-6.884-7.258-15.469-10.887-25.756-10.887-10.136 0-18.721 3.63-25.755 10.887-7.111 7.333-10.666 16.368-10.666 27.103 0 10.509 3.555 19.392 10.666 26.65 7.11 7.333 15.695 11 25.755 11 10.212 0 18.797-3.667 25.756-11 3.328-3.327 5.824-6.993 7.488-11h2.723c-2.042 4.838-4.879 9.11-8.509 12.814-7.564 7.787-16.717 11.68-27.458 11.68-10.665 0-19.818-3.893-27.457-11.68-7.64-8.014-11.46-17.502-11.46-28.464 0-11.189 3.82-20.79 11.46-28.804 7.639-7.787 16.792-11.68 27.457-11.68 10.741 0 19.894 3.893 27.458 11.68 3.706 3.78 6.543 8.052 8.509 12.814zm46.308-21.319L384.043 51.71h37.329a9831.433 9831.433 0 01-9.304-24.04 10268.723 10268.723 0 00-9.304-24.042zm30.408 76.886l-10.779-26.422h-39.371l-10.665 26.422h-2.723L401.63 0h2.382l31.883 80.516h-2.723zm20.425-79.381v37.99h48.675V1.134h2.496v79.382h-2.496v-39.01h-48.675v39.01h-2.383V1.133h2.383zm129.636 77.113h6.354V99h-2.496V80.516H523.78V99h-2.383V78.36l4.311-.226a16.82 16.82 0 004.652-3.969c1.286-1.588 2.307-3.478 3.064-5.67.756-2.193 1.286-4.045 1.588-5.557.379-1.588.757-3.59 1.135-6.01.605-3.931 1.21-9.866 1.815-17.804l2.383-37.99h42.888v77.113zm-54.688 0h52.192V3.402h-38.123l-2.156 35.495c-.605 8.014-1.21 14.062-1.815 18.144-.529 3.478-1.021 6.2-1.475 8.165-.454 1.89-1.437 4.234-2.95 7.031-1.513 2.797-3.404 4.8-5.673 6.01zm78.944-77.113h27.571c7.488 0 13.35 2.457 17.586 7.371C656.882 13.42 659 19.203 659 25.855c0 6.73-2.118 12.55-6.354 17.465-4.236 4.838-10.098 7.257-17.586 7.257h-25.075v29.939h-2.496V1.133zm2.496 47.062h25.075c6.807 0 12.102-2.193 15.884-6.577 3.782-4.385 5.673-9.602 5.673-15.65s-1.891-11.265-5.673-15.65c-3.782-4.46-9.077-6.69-15.884-6.69h-25.075v44.567z" fill="#3D3D3D"/></svg>